<svg xmlns="http://www.w3.org/2000/svg" width="1400" height="800" viewBox="0 0 1400 800">
  <defs><linearGradient id="bg" x1="0" y1="0" x2="1" y2="1"><stop offset="0" stop-color="#020817"/><stop offset=".55" stop-color="#071426"/><stop offset="1" stop-color="#020817"/></linearGradient><filter id="glow"><feGaussianBlur stdDeviation="5" result="b"/><feMerge><feMergeNode in="b"/><feMergeNode in="SourceGraphic"/></feMerge></filter></defs>
  <rect width="1400" height="800" fill="url(#bg)"/>
  <g opacity="0.16" stroke="#22d3ee"><path d="M0 80H1400M0 160H1400M0 240H1400M0 320H1400M0 400H1400M0 480H1400M0 560H1400M0 640H1400M0 720H1400"/><path d="M80 0V800M160 0V800M240 0V800M320 0V800M400 0V800M480 0V800M560 0V800M640 0V800M720 0V800M800 0V800M880 0V800M960 0V800M1040 0V800M1120 0V800M1200 0V800M1280 0V800"/></g>
  <rect x="0" y="0" width="1400" height="72" fill="#021326" stroke="#22d3ee" opacity="0.9"/>
  <text x="40" y="32" fill="#fff" font-size="24" font-family="Arial">MineSafetyMonitor</text><text x="40" y="54" fill="#8fb3d9" font-size="14">矿山安全监测平台</text>
  <text x="700" y="126" fill="#fff" font-size="44" text-anchor="middle" filter="url(#glow)">矿山安全监测驾驶舱</text>
  <text x="700" y="160" fill="#67e8f9" font-size="16" text-anchor="middle" letter-spacing="5">MINE SAFETY MONITORING COMMAND CENTER</text>
  <g font-family="Arial"><rect x="40" y="195" width="245" height="125" rx="18" fill="#0b2348" stroke="#22d3ee"/><text x="65" y="232" fill="#bdd7f5" font-size="18">监测点位总数</text><text x="65" y="285" fill="#67e8f9" font-size="52" filter="url(#glow)">128</text></g>
  <g><rect x="310" y="195" width="245" height="125" rx="18" fill="#0b2348" stroke="#22d3ee"/><text x="335" y="232" fill="#bdd7f5" font-size="18">在线率</text><text x="335" y="285" fill="#67e8f9" font-size="52" filter="url(#glow)">98%</text></g>
  <g><rect x="580" y="195" width="245" height="125" rx="18" fill="#0b2348" stroke="#22d3ee"/><text x="605" y="232" fill="#bdd7f5" font-size="18">今日预警数</text><text x="605" y="285" fill="#67e8f9" font-size="52" filter="url(#glow)">12</text></g>
  <g><rect x="850" y="195" width="245" height="125" rx="18" fill="#0b2348" stroke="#22d3ee"/><text x="875" y="232" fill="#bdd7f5" font-size="18">未处置高风险</text><text x="875" y="285" fill="#ef4444" font-size="52" filter="url(#glow)">3</text></g>
  <g><rect x="1120" y="195" width="245" height="125" rx="18" fill="#0b2348" stroke="#22d3ee"/><text x="1145" y="232" fill="#bdd7f5" font-size="18">当月任务完成率</text><text x="1145" y="285" fill="#67e8f9" font-size="52" filter="url(#glow)">92%</text></g>
  <rect x="40" y="350" width="860" height="390" rx="20" fill="#061228" stroke="#22d3ee"/>
  <text x="70" y="392" fill="#fff" font-size="24">2D巷道全景图</text>
  <path d="M120 520C260 455 380 575 535 500S760 455 835 560" fill="none" stroke="#22d3ee" stroke-width="6" filter="url(#glow)"/>
  <g filter="url(#glow)"><circle cx="170" cy="500" r="34" fill="#22c55e"/><circle cx="340" cy="548" r="34" fill="#22c55e"/><circle cx="520" cy="500" r="34" fill="#f59e0b"/><circle cx="710" cy="478" r="34" fill="#ef4444"/><circle cx="810" cy="555" r="34" fill="#64748b"/></g>
  <rect x="930" y="350" width="430" height="185" rx="18" fill="#0b2348" stroke="#22d3ee"/><text x="960" y="390" fill="#fff" font-size="24">最新10条预警</text><path d="M960 430H1330M960 470H1330M960 510H1330" stroke="#38bdf8" opacity=".35"/>
  <rect x="930" y="555" width="430" height="185" rx="18" fill="#0b2348" stroke="#22d3ee"/><text x="960" y="595" fill="#fff" font-size="24">近7天变形TOP5</text><path d="M960 635H1330M960 675H1330M960 715H1330" stroke="#38bdf8" opacity=".35"/>
</svg>
