<svg xmlns="http://www.w3.org/2000/svg" width="1200" height="700" viewBox="0 0 1200 700">
  <defs>
    <linearGradient id="bg" x1="0" y1="0" x2="1" y2="1">
      <stop offset="0" stop-color="#020817"/>
      <stop offset="0.55" stop-color="#06223d"/>
      <stop offset="1" stop-color="#020817"/>
    </linearGradient>
    <filter id="glow"><feGaussianBlur stdDeviation="6" result="b"/><feMerge><feMergeNode in="b"/><feMergeNode in="SourceGraphic"/></feMerge></filter>
  </defs>
  <rect width="1200" height="700" fill="url(#bg)"/>
  <g opacity="0.18" stroke="#22d3ee" stroke-width="1">
    <path d="M0 80H1200M0 160H1200M0 240H1200M0 320H1200M0 400H1200M0 480H1200M0 560H1200M0 640H1200"/>
    <path d="M80 0V700M160 0V700M240 0V700M320 0V700M400 0V700M480 0V700M560 0V700M640 0V700M720 0V700M800 0V700M880 0V700M960 0V700M1040 0V700M1120 0V700"/>
  </g>
  <circle cx="260" cy="120" r="190" fill="#22d3ee" opacity="0.12"/>
  <circle cx="950" cy="70" r="230" fill="#2563eb" opacity="0.16"/>
  <rect x="390" y="135" width="420" height="430" rx="28" fill="rgba(8,20,45,.92)" stroke="#22d3ee" stroke-width="2" filter="url(#glow)"/>
  <text x="600" y="205" fill="#67e8f9" font-size="18" text-anchor="middle" letter-spacing="5">MINE SAFETY</text>
  <text x="600" y="262" fill="#ffffff" font-size="34" text-anchor="middle" font-family="Arial, sans-serif">矿山安全监测上位机</text>
  <text x="600" y="302" fill="#8fb3d9" font-size="18" text-anchor="middle">智能预警 · 数据驾驶舱 · 安全闭环</text>
  <rect x="465" y="350" width="270" height="44" rx="10" fill="#020817" stroke="#38bdf8" opacity="0.95"/>
  <text x="490" y="378" fill="#8fb3d9" font-size="16">用户名</text>
  <rect x="465" y="414" width="270" height="44" rx="10" fill="#020817" stroke="#38bdf8" opacity="0.95"/>
  <text x="490" y="442" fill="#8fb3d9" font-size="16">密码</text>
  <rect x="465" y="485" width="270" height="48" rx="12" fill="#0e7490" stroke="#22d3ee" filter="url(#glow)"/>
  <text x="600" y="516" fill="#ffffff" font-size="18" text-anchor="middle">登录系统</text>
</svg>
