<svg xmlns="http://www.w3.org/2000/svg" width="1400" height="760" viewBox="0 0 1400 760">
  <rect width="1400" height="760" fill="#020817"/><circle cx="260" cy="90" r="220" fill="#22d3ee" opacity=".12"/><circle cx="1160" cy="120" r="260" fill="#2563eb" opacity=".16"/>
  <g opacity=".13" stroke="#22d3ee"><path d="M0 80H1400M0 160H1400M0 240H1400M0 320H1400M0 400H1400M0 480H1400M0 560H1400M0 640H1400M0 720H1400"/><path d="M80 0V760M160 0V760M240 0V760M320 0V760M400 0V760M480 0V760M560 0V760M640 0V760M720 0V760M800 0V760M880 0V760M960 0V760M1040 0V760M1120 0V760M1200 0V760M1280 0V760"/></g>
  <text x="70" y="100" fill="#fff" font-size="42">监测数据详情页</text><text x="70" y="138" fill="#8fb3d9" font-size="18">实时测距、累计收敛、变化速率、矿压数据统一看板</text>
  <rect x="70" y="175" width="1260" height="95" rx="18" fill="#0b2348" stroke="#22d3ee"/><rect x="105" y="205" width="280" height="38" rx="10" fill="#020817" stroke="#38bdf8"/><text x="125" y="230" fill="#8fb3d9" font-size="16">全部点位</text><rect x="410" y="205" width="100" height="38" rx="10" fill="#0e7490" stroke="#22d3ee"/><text x="460" y="230" fill="#fff" font-size="16" text-anchor="middle">查询</text><rect x="530" y="205" width="120" height="38" rx="10" fill="#1d4ed8" stroke="#22d3ee"/><text x="590" y="230" fill="#fff" font-size="16" text-anchor="middle">导出CSV</text><rect x="670" y="205" width="130" height="38" rx="10" fill="#1d4ed8" stroke="#22d3ee"/><text x="735" y="230" fill="#fff" font-size="16" text-anchor="middle">导出Excel</text>
  <rect x="70" y="300" width="1260" height="380" rx="18" fill="#0b2348" stroke="#22d3ee"/><g fill="#a5f3fc" font-size="17"><text x="105" y="350">巷道</text><text x="250" y="350">点位</text><text x="405" y="350">实时测距</text><text x="570" y="350">累计收敛</text><text x="740" y="350">变化速率</text><text x="910" y="350">阈值差值</text><text x="1080" y="350">矿压</text><text x="1190" y="350">采集时间</text></g>
  <g stroke="#38bdf8" opacity=".25"><path d="M95 372H1305M95 430H1305M95 488H1305M95 546H1305M95 604H1305M95 662H1305"/></g>
  <g fill="#d7eaff" font-size="16"><text x="105" y="408">一号巷道</text><text x="250" y="408">A-01</text><text x="405" y="408">12.6</text><text x="570" y="408">3.2</text><text x="740" y="408">0.08</text><text x="910" y="408">-1.4</text><text x="1080" y="408">24.7</text><text x="1190" y="408">06-22 18:00</text></g>
</svg>
