<svg xmlns="http://www.w3.org/2000/svg" width="1400" height="760" viewBox="0 0 1400 760">
  <rect width="1400" height="760" fill="#020817"/><circle cx="250" cy="90" r="220" fill="#22d3ee" opacity=".12"/><circle cx="1150" cy="110" r="260" fill="#2563eb" opacity=".16"/>
  <g opacity=".13" stroke="#22d3ee"><path d="M0 80H1400M0 160H1400M0 240H1400M0 320H1400M0 400H1400M0 480H1400M0 560H1400M0 640H1400M0 720H1400"/><path d="M80 0V760M160 0V760M240 0V760M320 0V760M400 0V760M480 0V760M560 0V760M640 0V760M720 0V760M800 0V760M880 0V760M960 0V760M1040 0V760M1120 0V760M1200 0V760M1280 0V760"/></g>
  <text x="70" y="100" fill="#fff" font-size="42">智能报告生成页</text><text x="70" y="138" fill="#8fb3d9" font-size="18">周期报告生成、审批留痕与导出</text>
  <rect x="70" y="175" width="1260" height="115" rx="18" fill="#0b2348" stroke="#22d3ee"/><text x="105" y="220" fill="#fff" font-size="24">生成报告</text><text x="1210" y="220" fill="#8fb3d9" font-size="15" text-anchor="end">REPORT GENERATOR</text>
  <rect x="105" y="240" width="190" height="36" rx="10" fill="#020817" stroke="#38bdf8"/><text x="125" y="263" fill="#8fb3d9" font-size="15">日报</text><rect x="315" y="240" width="190" height="36" rx="10" fill="#020817" stroke="#38bdf8"/><text x="335" y="263" fill="#8fb3d9" font-size="15">开始日期</text><rect x="525" y="240" width="190" height="36" rx="10" fill="#020817" stroke="#38bdf8"/><text x="545" y="263" fill="#8fb3d9" font-size="15">结束日期</text><rect x="735" y="240" width="190" height="36" rx="10" fill="#020817" stroke="#38bdf8"/><text x="755" y="263" fill="#8fb3d9" font-size="15">全矿区</text><rect x="950" y="238" width="120" height="40" rx="10" fill="#0e7490" stroke="#22d3ee"/><text x="1010" y="264" fill="#fff" font-size="16" text-anchor="middle">一键生成</text>
  <rect x="70" y="320" width="1260" height="360" rx="18" fill="#0b2348" stroke="#22d3ee"/><text x="105" y="365" fill="#fff" font-size="24">报告历史库</text><text x="1210" y="365" fill="#8fb3d9" font-size="15" text-anchor="end">ARCHIVE</text>
  <g fill="#a5f3fc" font-size="17"><text x="105" y="420">标题</text><text x="380" y="420">周期</text><text x="585" y="420">巷道</text><text x="760" y="420">摘要</text><text x="1130" y="420">审批/导出</text></g>
  <g stroke="#38bdf8" opacity=".25"><path d="M95 442H1305M95 500H1305M95 558H1305M95 616H1305"/></g>
  <g fill="#d7eaff" font-size="16"><text x="105" y="478">矿山安全日报</text><text x="380" y="478">2026-06-22</text><text x="585" y="478">全矿区</text><text x="760" y="478">监测点位整体稳定...</text></g>
  <rect x="1120" y="455" width="70" height="32" rx="10" fill="#0e7490" stroke="#22d3ee"/><text x="1155" y="477" fill="#fff" font-size="15" text-anchor="middle">保存</text><rect x="1205" y="455" width="70" height="32" rx="10" fill="#1d4ed8" stroke="#22d3ee"/><text x="1240" y="477" fill="#fff" font-size="15" text-anchor="middle">PDF</text>
</svg>
