<svg xmlns="http://www.w3.org/2000/svg" width="1400" height="760" viewBox="0 0 1400 760">
  <rect width="1400" height="760" fill="#020817"/><circle cx="1150" cy="80" r="260" fill="#ef4444" opacity=".12"/><circle cx="280" cy="120" r="220" fill="#22d3ee" opacity=".12"/>
  <g opacity=".13" stroke="#22d3ee"><path d="M0 80H1400M0 160H1400M0 240H1400M0 320H1400M0 400H1400M0 480H1400M0 560H1400M0 640H1400M0 720H1400"/><path d="M80 0V760M160 0V760M240 0V760M320 0V760M400 0V760M480 0V760M560 0V760M640 0V760M720 0V760M800 0V760M880 0V760M960 0V760M1040 0V760M1120 0V760M1200 0V760M1280 0V760"/></g>
  <text x="70" y="100" fill="#fff" font-size="42">风险预警管理页</text><text x="70" y="138" fill="#8fb3d9" font-size="18">风险事件分级、状态跟踪与闭环处置</text>
  <rect x="70" y="175" width="1260" height="80" rx="18" fill="#0b2348" stroke="#22d3ee"/><g font-size="16" fill="#fff"><rect x="105" y="198" width="86" height="34" rx="10" fill="#0e7490" stroke="#22d3ee"/><text x="148" y="221" text-anchor="middle">全部</text><rect x="210" y="198" width="86" height="34" rx="10" fill="#ca8a04"/><text x="253" y="221" text-anchor="middle">低风险</text><rect x="315" y="198" width="86" height="34" rx="10" fill="#f59e0b"/><text x="358" y="221" text-anchor="middle">中风险</text><rect x="420" y="198" width="86" height="34" rx="10" fill="#ef4444"/><text x="463" y="221" text-anchor="middle">高风险</text></g>
  <rect x="70" y="285" width="1260" height="395" rx="18" fill="#0b2348" stroke="#22d3ee"/><g fill="#a5f3fc" font-size="17"><text x="105" y="335">点位</text><text x="260" y="335">等级</text><text x="420" y="335">变形值</text><text x="585" y="335">超标倍数</text><text x="760" y="335">时间</text><text x="965" y="335">状态</text><text x="1120" y="335">处置</text></g>
  <g stroke="#38bdf8" opacity=".25"><path d="M95 357H1305M95 415H1305M95 473H1305M95 531H1305M95 589H1305M95 647H1305"/></g>
  <g font-size="16"><text x="105" y="393" fill="#d7eaff">A-03</text><rect x="250" y="371" width="80" height="30" rx="15" fill="#ef4444"/><text x="290" y="392" fill="#fff" text-anchor="middle">高</text><text x="420" y="393" fill="#d7eaff">8.5</text><text x="585" y="393" fill="#d7eaff">2.3</text><text x="760" y="393" fill="#d7eaff">06-22 18:00</text><rect x="955" y="371" width="90" height="30" rx="15" fill="#dc2626"/><text x="1000" y="392" fill="#fff" text-anchor="middle">待处理</text><rect x="1110" y="369" width="82" height="34" rx="10" fill="#0e7490" stroke="#22d3ee"/><text x="1151" y="392" fill="#fff" text-anchor="middle">提交</text></g>
</svg>
